<svg xmlns="http://www.w3.org/2000/svg" viewBox="0 0 720 258" width="720" height="258">
<!-- DDRG title-band mosaic, reconstructed as vector from DB_template.potx (slideLayout1) -->
<svg x="1.838" y="1.532" width="149.138" height="150.059" viewBox="125.713 124.128 122.690 123.447" preserveAspectRatio="none" overflow="hidden">
<rect x="143.77" y="106.61" width="34.62" height="34.62" stroke="none" stroke-width="1" stroke-dasharray="" stroke-dashoffset="1" fill="#8CE6D7" fill-opacity="1" transform="matrix(0.707107,-0.707107,0.707107,0.707107,-40.44,150.2)"/><rect x="94.21" y="30.86" width="34.62" height="86.98" stroke="none" stroke-width="1" stroke-dasharray="" stroke-dashoffset="1" fill="#8CE6D7" fill-opacity="1" transform="matrix(0.707107,-0.707107,0.707107,0.707107,-19.91,100.63)"/><rect x="174.77" y="75.44" width="34.94" height="34.62" stroke="none" stroke-width="1" stroke-dasharray="" stroke-dashoffset="1" fill="#8CE6D7" fill-opacity="1" transform="matrix(0.707107,-0.707107,0.707107,0.707107,-9.28,163.1)"/><rect x="67.59" y="156.36" width="87.5" height="34.62" stroke="none" stroke-width="1" stroke-dasharray="" stroke-dashoffset="1" fill="#8CE6D7" fill-opacity="1" transform="matrix(0.707107,-0.707107,0.707107,0.707107,-90.19,129.59)"/><rect x="175.08" y="137.55" width="34.62" height="35.34" stroke="none" stroke-width="1" stroke-dasharray="" stroke-dashoffset="1" fill="#8CE6D7" fill-opacity="1" transform="matrix(0.707107,-0.707107,0.707107,0.707107,-53.41,181.5)"/><rect x="17.98" y="80.51" width="87.5" height="87.1" stroke="none" stroke-width="1" stroke-dasharray="" stroke-dashoffset="1" fill="#8CE6D7" fill-opacity="1" transform="matrix(0.707107,-0.707107,0.707107,0.707107,-69.64,79.99)"/><rect x="98.89" y="187.3" width="87.5" height="35.34" stroke="none" stroke-width="1" stroke-dasharray="" stroke-dashoffset="1" fill="#8CE6D7" fill-opacity="1" transform="matrix(0.707107,-0.707107,0.707107,0.707107,-103.16,160.89)"/><rect x="125.17" y="-0.4" width="34.94" height="87.1" stroke="none" stroke-width="1" stroke-dasharray="" stroke-dashoffset="1" fill="#8CE6D7" fill-opacity="1" transform="matrix(0.707107,-0.707107,0.707107,0.707107,11.27,113.5)"/><rect x="206.08" y="106.39" width="34.94" height="35.34" stroke="none" stroke-width="1" stroke-dasharray="" stroke-dashoffset="1" fill="#8CE6D7" fill-opacity="1" transform="matrix(0.707107,-0.707107,0.707107,0.707107,-22.25,194.41)"/>
</svg>
<svg x="9.485" y="8.815" width="301.952" height="251.104" viewBox="0.000 -0.830 248.400 206.572" preserveAspectRatio="none" overflow="hidden">
<rect x="143.77" y="106.61" width="34.62" height="34.62" stroke="none" stroke-width="1" stroke-dasharray="" stroke-dashoffset="1" fill="#FFFFFF" fill-opacity="1" transform="matrix(0.707107,-0.707107,0.707107,0.707107,-40.44,150.2)"/><rect x="94.21" y="30.86" width="34.62" height="86.98" stroke="none" stroke-width="1" stroke-dasharray="" stroke-dashoffset="1" fill="#FFFFFF" fill-opacity="1" transform="matrix(0.707107,-0.707107,0.707107,0.707107,-19.91,100.63)"/><rect x="174.77" y="75.44" width="34.94" height="34.62" stroke="none" stroke-width="1" stroke-dasharray="" stroke-dashoffset="1" fill="#FFFFFF" fill-opacity="1" transform="matrix(0.707107,-0.707107,0.707107,0.707107,-9.28,163.1)"/><rect x="67.59" y="156.36" width="87.5" height="34.62" stroke="none" stroke-width="1" stroke-dasharray="" stroke-dashoffset="1" fill="#FFFFFF" fill-opacity="1" transform="matrix(0.707107,-0.707107,0.707107,0.707107,-90.19,129.59)"/><rect x="175.08" y="137.55" width="34.62" height="35.34" stroke="none" stroke-width="1" stroke-dasharray="" stroke-dashoffset="1" fill="#FFFFFF" fill-opacity="1" transform="matrix(0.707107,-0.707107,0.707107,0.707107,-53.41,181.5)"/><rect x="17.98" y="80.51" width="87.5" height="87.1" stroke="none" stroke-width="1" stroke-dasharray="" stroke-dashoffset="1" fill="#FFFFFF" fill-opacity="1" transform="matrix(0.707107,-0.707107,0.707107,0.707107,-69.64,79.99)"/><rect x="98.89" y="187.3" width="87.5" height="35.34" stroke="none" stroke-width="1" stroke-dasharray="" stroke-dashoffset="1" fill="#FFFFFF" fill-opacity="1" transform="matrix(0.707107,-0.707107,0.707107,0.707107,-103.16,160.89)"/><rect x="125.17" y="-0.4" width="34.94" height="87.1" stroke="none" stroke-width="1" stroke-dasharray="" stroke-dashoffset="1" fill="#FFFFFF" fill-opacity="1" transform="matrix(0.707107,-0.707107,0.707107,0.707107,11.27,113.5)"/><rect x="206.08" y="106.39" width="34.94" height="35.34" stroke="none" stroke-width="1" stroke-dasharray="" stroke-dashoffset="1" fill="#FFFFFF" fill-opacity="1" transform="matrix(0.707107,-0.707107,0.707107,0.707107,-22.25,194.41)"/>
</svg>
<svg x="1.838" y="168.607" width="151.233" height="91.312" viewBox="123.989 -0.830 124.411 75.116" preserveAspectRatio="none" overflow="hidden">
<rect x="143.77" y="106.61" width="34.62" height="34.62" stroke="none" stroke-width="1" stroke-dasharray="" stroke-dashoffset="1" fill="#D2DC46" fill-opacity="1" transform="matrix(0.707107,-0.707107,0.707107,0.707107,-40.44,150.2)"/><rect x="94.21" y="30.86" width="34.62" height="86.98" stroke="none" stroke-width="1" stroke-dasharray="" stroke-dashoffset="1" fill="#D2DC46" fill-opacity="1" transform="matrix(0.707107,-0.707107,0.707107,0.707107,-19.91,100.63)"/><rect x="174.77" y="75.44" width="34.94" height="34.62" stroke="none" stroke-width="1" stroke-dasharray="" stroke-dashoffset="1" fill="#D2DC46" fill-opacity="1" transform="matrix(0.707107,-0.707107,0.707107,0.707107,-9.28,163.1)"/><rect x="67.59" y="156.36" width="87.5" height="34.62" stroke="none" stroke-width="1" stroke-dasharray="" stroke-dashoffset="1" fill="#D2DC46" fill-opacity="1" transform="matrix(0.707107,-0.707107,0.707107,0.707107,-90.19,129.59)"/><rect x="175.08" y="137.55" width="34.62" height="35.34" stroke="none" stroke-width="1" stroke-dasharray="" stroke-dashoffset="1" fill="#D2DC46" fill-opacity="1" transform="matrix(0.707107,-0.707107,0.707107,0.707107,-53.41,181.5)"/><rect x="17.98" y="80.51" width="87.5" height="87.1" stroke="none" stroke-width="1" stroke-dasharray="" stroke-dashoffset="1" fill="#D2DC46" fill-opacity="1" transform="matrix(0.707107,-0.707107,0.707107,0.707107,-69.64,79.99)"/><rect x="98.89" y="187.3" width="87.5" height="35.34" stroke="none" stroke-width="1" stroke-dasharray="" stroke-dashoffset="1" fill="#D2DC46" fill-opacity="1" transform="matrix(0.707107,-0.707107,0.707107,0.707107,-103.16,160.89)"/><rect x="125.17" y="-0.4" width="34.94" height="87.1" stroke="none" stroke-width="1" stroke-dasharray="" stroke-dashoffset="1" fill="#D2DC46" fill-opacity="1" transform="matrix(0.707107,-0.707107,0.707107,0.707107,11.27,113.5)"/><rect x="206.08" y="106.39" width="34.94" height="35.34" stroke="none" stroke-width="1" stroke-dasharray="" stroke-dashoffset="1" fill="#D2DC46" fill-opacity="1" transform="matrix(0.707107,-0.707107,0.707107,0.707107,-22.25,194.41)"/>
</svg>
<svg x="169.946" y="167.994" width="301.952" height="91.925" viewBox="0.000 -0.832 248.400 75.623" preserveAspectRatio="none" overflow="hidden">
<rect x="143.77" y="106.61" width="34.62" height="34.62" stroke="none" stroke-width="1" stroke-dasharray="" stroke-dashoffset="1" fill="#97C6FF" fill-opacity="1" transform="matrix(0.707107,-0.707107,0.707107,0.707107,-40.44,150.2)"/><rect x="94.21" y="30.86" width="34.62" height="86.98" stroke="none" stroke-width="1" stroke-dasharray="" stroke-dashoffset="1" fill="#97C6FF" fill-opacity="1" transform="matrix(0.707107,-0.707107,0.707107,0.707107,-19.91,100.63)"/><rect x="174.77" y="75.44" width="34.94" height="34.62" stroke="none" stroke-width="1" stroke-dasharray="" stroke-dashoffset="1" fill="#97C6FF" fill-opacity="1" transform="matrix(0.707107,-0.707107,0.707107,0.707107,-9.28,163.1)"/><rect x="67.59" y="156.36" width="87.5" height="34.62" stroke="none" stroke-width="1" stroke-dasharray="" stroke-dashoffset="1" fill="#97C6FF" fill-opacity="1" transform="matrix(0.707107,-0.707107,0.707107,0.707107,-90.19,129.59)"/><rect x="175.08" y="137.55" width="34.62" height="35.34" stroke="none" stroke-width="1" stroke-dasharray="" stroke-dashoffset="1" fill="#97C6FF" fill-opacity="1" transform="matrix(0.707107,-0.707107,0.707107,0.707107,-53.41,181.5)"/><rect x="17.98" y="80.51" width="87.5" height="87.1" stroke="none" stroke-width="1" stroke-dasharray="" stroke-dashoffset="1" fill="#97C6FF" fill-opacity="1" transform="matrix(0.707107,-0.707107,0.707107,0.707107,-69.64,79.99)"/><rect x="98.89" y="187.3" width="87.5" height="35.34" stroke="none" stroke-width="1" stroke-dasharray="" stroke-dashoffset="1" fill="#97C6FF" fill-opacity="1" transform="matrix(0.707107,-0.707107,0.707107,0.707107,-103.16,160.89)"/><rect x="125.17" y="-0.4" width="34.94" height="87.1" stroke="none" stroke-width="1" stroke-dasharray="" stroke-dashoffset="1" fill="#97C6FF" fill-opacity="1" transform="matrix(0.707107,-0.707107,0.707107,0.707107,11.27,113.5)"/><rect x="206.08" y="106.39" width="34.94" height="35.34" stroke="none" stroke-width="1" stroke-dasharray="" stroke-dashoffset="1" fill="#97C6FF" fill-opacity="1" transform="matrix(0.707107,-0.707107,0.707107,0.707107,-22.25,194.41)"/>
</svg>
</svg>