<svg version="1.1" viewBox="0 0 727.59 253" xmlns="http://www.w3.org/2000/svg" xmlns:xlink="http://www.w3.org/1999/xlink" overflow="hidden"><defs></defs><rect x="143.77" y="106.61" width="34.62" height="34.62" fill="#84CFED" transform="matrix(0.707107,-0.707107,0.707107,0.707107,-40.44,150.2)"/><rect x="94.21" y="30.86" width="34.62" height="86.98" fill="#FFFFFF" transform="matrix(0.707107,-0.707107,0.707107,0.707107,-19.91,100.63)"/><rect x="174.77" y="75.44" width="34.94" height="34.62" fill="#BCCF00" transform="matrix(0.707107,-0.707107,0.707107,0.707107,-9.28,163.1)"/><rect x="67.59" y="156.36" width="87.5" height="34.62" fill="#FFFFFF" transform="matrix(0.707107,-0.707107,0.707107,0.707107,-90.19,129.59)"/><rect x="175.08" y="137.55" width="34.62" height="35.34" fill="#2B608B" transform="matrix(0.707107,-0.707107,0.707107,0.707107,-53.41,181.5)"/><rect x="17.98" y="80.51" width="87.5" height="87.1" fill="#FFFFFF" transform="matrix(0.707107,-0.707107,0.707107,0.707107,-69.64,79.99)"/><rect x="98.89" y="187.3" width="87.5" height="35.34" fill="#FFFFFF" transform="matrix(0.707107,-0.707107,0.707107,0.707107,-103.16,160.89)"/><rect x="125.17" y="-0.4" width="34.94" height="87.1" fill="#FFFFFF" transform="matrix(0.707107,-0.707107,0.707107,0.707107,11.27,113.5)"/><rect x="206.08" y="106.39" width="34.94" height="35.34" fill="#009BA4" transform="matrix(0.707107,-0.707107,0.707107,0.707107,-22.25,194.41)"/><path d=" M 352.5 39.61 C 352.5 49.95 349.557 57.8667 343.67 63.36 C 337.783 68.8533 329.287 71.6033 318.18 71.61 L 300.4 71.61 L 300.4 8.81 L 320.11 8.81 C 330.363 8.81 338.327 11.5167 344 16.93 C 349.673 22.3433 352.507 29.9033 352.5 39.61 Z M 338.67 40 C 338.67 26.5067 332.713 19.7633 320.8 19.77 L 313.71 19.77 L 313.71 60.61 L 319.43 60.61 C 332.25 60.61 338.663 53.74 338.67 40 Z" fill="#FFFFFF"/><path d=" M 391.29 22.69 C 392.773 22.6603 394.254 22.7876 395.71 23.07 L 394.71 35.35 C 393.444 35.0426 392.143 34.8981 390.84 34.92 C 386.66 34.92 383.403 35.9967 381.07 38.15 C 378.737 40.3033 377.57 43.3033 377.57 47.15 L 377.57 71.61 L 364.48 71.61 L 364.48 23.61 L 374.41 23.61 L 376.34 31.69 L 377 31.69 C 378.435 29.0604 380.496 26.8246 383 25.18 C 385.456 23.5485 388.341 22.682 391.29 22.69 Z" fill="#FFFFFF"/><path d=" M 426.17 72.47 C 418.437 72.47 412.393 70.3367 408.04 66.07 C 403.687 61.8033 401.51 55.76 401.51 47.94 C 401.51 39.8933 403.51 33.6733 407.51 29.28 C 411.51 24.8867 417.073 22.69 424.2 22.69 C 430.98 22.69 436.263 24.62 440.05 28.48 C 443.837 32.34 445.723 37.6733 445.71 44.48 L 445.71 50.84 L 414.71 50.84 C 414.863 54.56 415.967 57.4667 418.02 59.56 C 420.08 61.65 423.02 62.7 426.7 62.7 C 429.459 62.7152 432.21 62.4132 434.9 61.8 C 437.687 61.1262 440.395 60.1608 442.98 58.92 L 442.98 69.07 C 440.649 70.2327 438.179 71.093 435.63 71.63 C 432.514 72.235 429.344 72.5165 426.17 72.47 Z M 424.32 32 C 421.857 31.8667 419.463 32.8382 417.79 34.65 C 416.21 36.41 415.32 38.91 415.09 42.14 L 433.47 42.14 C 433.41 38.91 432.57 36.41 430.93 34.65 C 429.218 32.8463 426.804 31.8787 424.32 32 Z" fill="#FFFFFF"/><path d=" M 489.92 57.35 C 489.92 62.27 488.2 66.03 484.78 68.6 C 481.36 71.17 476.24 72.47 469.43 72.47 C 466.434 72.5104 463.442 72.2727 460.49 71.76 C 458.119 71.3146 455.803 70.6174 453.58 69.68 L 453.58 58.85 C 456.22 60.0741 458.973 61.0387 461.8 61.73 C 464.43 62.4429 467.136 62.8324 469.86 62.89 C 474.61 62.89 476.98 61.52 476.98 58.76 C 477.019 57.8307 476.68 56.9252 476.04 56.25 C 475.062 55.3705 473.964 54.6332 472.78 54.06 C 471.233 53.2467 469.17 52.2967 466.59 51.21 C 463.715 50.106 460.982 48.6624 458.45 46.91 C 456.838 45.7326 455.54 44.177 454.67 42.38 C 453.825 40.3903 453.422 38.2407 453.49 36.08 C 453.332 32.1401 455.224 28.399 458.49 26.19 C 461.823 23.85 466.513 22.6833 472.56 22.69 C 478.395 22.6983 484.156 23.9852 489.44 26.46 L 485.49 35.92 C 483.284 34.9599 481.031 34.1122 478.74 33.38 C 476.671 32.7195 474.512 32.3822 472.34 32.38 C 468.48 32.38 466.55 33.4267 466.55 35.52 C 466.622 36.7704 467.322 37.8993 468.41 38.52 C 471.019 40.0308 473.757 41.3091 476.59 42.34 C 479.502 43.4176 482.272 44.8447 484.84 46.59 C 486.478 47.7768 487.805 49.341 488.71 51.15 C 489.58 53.0975 489.994 55.2181 489.92 57.35 Z" fill="#FFFFFF"/><path d=" M 515.35 72.47 C 510.092 72.6628 505.092 70.1926 502.05 65.9 C 498.83 61.52 497.22 55.45 497.22 47.69 C 497.22 39.81 498.86 33.6733 502.14 29.28 C 505.275 24.961 510.357 22.4894 515.69 22.69 C 521.73 22.69 526.34 25.0233 529.52 29.69 L 530 29.69 C 529.379 26.5333 529.044 23.3269 529 20.11 L 529 4.77 L 542.15 4.77 L 542.15 71.61 L 532.05 71.61 L 529.52 65.38 L 529 65.38 C 525.993 70.1067 521.443 72.47 515.35 72.47 Z M 519.94 62 C 523.273 62 525.73 61.0267 527.31 59.08 C 528.89 57.1333 529.74 53.8267 529.86 49.16 L 529.86 47.77 C 529.86 42.61 529.067 38.9167 527.48 36.69 C 525.893 34.4633 523.31 33.3467 519.73 33.34 C 516.957 33.2577 514.355 34.6755 512.92 37.05 C 511.3 39.53 510.49 43.13 510.49 47.85 C 510.49 52.57 511.307 56.1167 512.94 58.49 C 514.502 60.8001 517.154 62.13 519.94 62 Z" fill="#FFFFFF"/><path d=" M 577.55 72.47 C 569.81 72.47 563.767 70.3367 559.42 66.07 C 555.073 61.8033 552.897 55.76 552.89 47.94 C 552.89 39.8933 554.89 33.6733 558.89 29.28 C 562.89 24.8867 568.453 22.69 575.58 22.69 C 582.36 22.69 587.643 24.62 591.43 28.48 C 595.217 32.34 597.103 37.6733 597.09 44.48 L 597.09 50.84 L 566.09 50.84 C 566.243 54.56 567.347 57.4667 569.4 59.56 C 571.46 61.65 574.4 62.7 578.08 62.7 C 580.839 62.7144 583.59 62.4124 586.28 61.8 C 589.067 61.1262 591.775 60.1608 594.36 58.92 L 594.36 69.07 C 592.029 70.2327 589.559 71.093 587.01 71.63 C 583.894 72.235 580.724 72.5165 577.55 72.47 Z M 575.7 32 C 573.237 31.8667 570.843 32.8382 569.17 34.65 C 567.59 36.41 566.7 38.91 566.47 42.14 L 584.85 42.14 C 584.79 38.91 583.95 36.41 582.31 34.65 C 580.598 32.8463 578.184 31.8787 575.7 32 Z" fill="#FFFFFF"/><path d=" M 652.12 71.61 L 639 71.61 L 639 43.61 C 639 40.15 638.383 37.55 637.15 35.81 C 635.917 34.07 633.957 33.2033 631.27 33.21 C 627.603 33.21 624.953 34.4367 623.32 36.89 C 621.69 39.34 620.87 43.39 620.87 49.07 L 620.87 71.61 L 607.77 71.61 L 607.77 23.61 L 617.77 23.61 L 619.53 29.76 L 620.26 29.76 C 621.7 27.4531 623.787 25.6205 626.26 24.49 C 629.013 23.2712 631.999 22.6672 635.01 22.72 C 640.59 22.72 644.83 24.22 647.72 27.25 C 650.61 30.28 652.06 34.63 652.06 40.33 Z" fill="#FFFFFF"/><path d=" M 352.5 123.37 C 352.5 133.697 349.557 141.613 343.67 147.12 C 337.783 152.627 329.287 155.377 318.18 155.37 L 300.4 155.37 L 300.4 92.57 L 320.11 92.57 C 330.363 92.57 338.327 95.2733 344 100.68 C 349.673 106.087 352.507 113.65 352.5 123.37 Z M 338.67 123.71 C 338.67 110.223 332.713 103.48 320.8 103.48 L 313.71 103.48 L 313.71 144.37 L 319.43 144.37 C 332.25 144.37 338.663 137.483 338.67 123.71 Z" fill="#FFFFFF"/><path d=" M 395 155.37 L 392.47 148.83 L 392.13 148.83 C 390.341 151.261 388.009 153.24 385.32 154.61 C 382.426 155.791 379.313 156.34 376.19 156.22 C 371.577 156.22 367.947 154.903 365.3 152.27 C 362.653 149.637 361.32 145.887 361.3 141.02 C 361.3 135.92 363.083 132.16 366.65 129.74 C 370.217 127.32 375.59 125.987 382.77 125.74 L 391.11 125.49 L 391.11 123.39 C 391.11 118.51 388.617 116.073 383.63 116.08 C 379.8 116.08 375.28 117.24 370.1 119.56 L 365.77 110.71 C 371.449 107.779 377.76 106.289 384.15 106.37 C 390.59 106.37 395.53 107.777 398.97 110.59 C 402.41 113.403 404.127 117.67 404.12 123.39 L 404.12 155.39 Z M 391.14 133.11 L 386.07 133.29 C 382.26 133.4 379.42 134.09 377.57 135.35 C 375.687 136.638 374.623 138.823 374.77 141.1 C 374.77 144.8 376.89 146.64 381.13 146.64 C 383.807 146.77 386.426 145.831 388.41 144.03 C 390.273 142.19 391.265 139.645 391.14 137.03 Z" fill="#FFFFFF"/><path d=" M 437.86 145.79 C 440.667 145.7 443.444 145.191 446.1 144.28 L 446.1 154 C 442.297 155.561 438.209 156.307 434.1 156.19 C 428.86 156.19 425.047 154.857 422.66 152.19 C 420.273 149.523 419.053 145.57 419 140.33 L 419 117.18 L 412.73 117.18 L 412.73 111.64 L 419.94 107.26 L 423.73 97.12 L 432.1 97.12 L 432.1 107.34 L 445.55 107.34 L 445.55 117.18 L 432.14 117.18 L 432.14 140.33 C 432.015 141.87 432.592 143.384 433.71 144.45 C 434.884 145.388 436.36 145.864 437.86 145.79 Z" fill="#FFFFFF"/><path d=" M 486.31 155.37 L 483.77 148.83 L 483.43 148.83 C 481.641 151.261 479.309 153.24 476.62 154.61 C 473.726 155.791 470.613 156.34 467.49 156.22 C 462.877 156.22 459.247 154.903 456.6 152.27 C 453.953 149.637 452.62 145.887 452.6 141.02 C 452.6 135.92 454.383 132.16 457.95 129.74 C 461.517 127.32 466.893 125.987 474.08 125.74 L 482.41 125.49 L 482.41 123.39 C 482.41 118.51 479.92 116.073 474.94 116.08 C 471.1 116.08 466.587 117.24 461.4 119.56 L 457.07 110.71 C 462.749 107.782 469.061 106.291 475.45 106.37 C 481.897 106.37 486.837 107.777 490.27 110.59 C 493.703 113.403 495.423 117.67 495.43 123.39 L 495.43 155.39 Z M 482.44 133.11 L 477.37 133.29 C 473.557 133.403 470.723 134.09 468.87 135.35 C 466.99 136.641 465.927 138.824 466.07 141.1 C 466.07 144.8 468.19 146.64 472.43 146.64 C 475.107 146.773 477.727 145.833 479.71 144.03 C 481.573 142.19 482.565 139.645 482.44 137.03 Z" fill="#FFFFFF"/><path d=" M 535.66 106.44 C 540.945 106.238 545.97 108.735 549 113.07 C 552.213 117.503 553.817 123.57 553.81 131.27 C 553.81 139.197 552.143 145.34 548.81 149.7 C 545.661 153.972 540.604 156.413 535.3 156.22 C 529.66 156.22 525.237 154.173 522.03 150.08 L 521.12 150.08 L 519 155.37 L 509 155.37 L 509 88.53 L 522.11 88.53 L 522.11 104.08 C 522.11 106.08 521.93 109.22 521.59 113.57 L 522.11 113.57 C 525.13 108.823 529.647 106.447 535.66 106.44 Z M 531.45 116.92 C 528.22 116.92 525.85 117.92 524.36 119.92 C 522.87 121.92 522.1 125.19 522.05 129.77 L 522.05 131.19 C 522.05 136.343 522.817 140.037 524.35 142.27 C 525.88 144.51 528.3 145.62 531.62 145.62 C 534.277 145.64 536.738 144.221 538.05 141.91 C 539.637 139.43 540.43 135.83 540.43 131.11 C 540.43 126.39 539.62 122.84 538 120.46 C 536.589 118.212 534.103 116.869 531.45 116.92 Z" fill="#FFFFFF"/><path d=" M 595.12 155.37 L 592.58 148.83 L 592.24 148.83 C 590.451 151.261 588.119 153.24 585.43 154.61 C 582.536 155.791 579.423 156.34 576.3 156.22 C 571.693 156.22 568.063 154.903 565.41 152.27 C 562.757 149.637 561.423 145.887 561.41 141.02 C 561.41 135.92 563.193 132.16 566.76 129.74 C 570.327 127.32 575.703 125.987 582.89 125.74 L 591.22 125.49 L 591.22 123.39 C 591.22 118.51 588.727 116.073 583.74 116.08 C 579.913 116.08 575.403 117.24 570.21 119.56 L 565.88 110.71 C 571.559 107.779 577.87 106.289 584.26 106.37 C 590.713 106.37 595.653 107.777 599.08 110.59 C 602.51 113.39 604.24 117.66 604.24 123.39 L 604.24 155.39 Z M 591.25 133.11 L 586.18 133.29 C 582.373 133.403 579.54 134.09 577.68 135.35 C 575.797 136.638 574.733 138.823 574.88 141.1 C 574.88 144.8 577 146.64 581.24 146.64 C 583.917 146.77 586.536 145.831 588.52 144.03 C 590.383 142.19 591.375 139.645 591.25 137.03 Z" fill="#FFFFFF"/><path d=" M 651.26 141.1 C 651.26 146.033 649.547 149.787 646.12 152.36 C 642.693 154.933 637.577 156.22 630.77 156.22 C 627.778 156.263 624.789 156.029 621.84 155.52 C 619.466 155.071 617.146 154.371 614.92 153.43 L 614.92 142.61 C 617.565 143.831 620.321 144.796 623.15 145.49 C 625.776 146.2 628.48 146.586 631.2 146.64 C 635.953 146.64 638.33 145.267 638.33 142.52 C 638.365 141.591 638.027 140.687 637.39 140.01 C 636.407 139.131 635.307 138.394 634.12 137.82 C 632.58 137 630.51 136.05 627.93 134.96 C 625.058 133.854 622.326 132.414 619.79 130.67 C 618.178 129.493 616.88 127.937 616.01 126.14 C 615.172 124.148 614.769 122 614.83 119.84 C 614.673 115.897 616.564 112.154 619.83 109.94 C 623.163 107.6 627.853 106.433 633.9 106.44 C 639.735 106.451 645.497 107.741 650.78 110.22 L 646.78 119.67 C 644.38 118.637 642.133 117.793 640.04 117.14 C 637.971 116.48 635.812 116.143 633.64 116.14 C 629.773 116.14 627.84 117.183 627.84 119.27 C 627.909 120.524 628.614 121.656 629.71 122.27 C 632.316 123.79 635.054 125.071 637.89 126.1 C 640.803 127.176 643.573 128.603 646.14 130.35 C 647.786 131.562 649.112 133.159 650 135 C 650.877 136.912 651.308 138.997 651.26 141.1 Z" fill="#FFFFFF"/><path d=" M 683.22 156.22 C 675.487 156.22 669.443 154.09 665.09 149.83 C 660.737 145.57 658.56 139.527 658.56 131.7 C 658.56 123.653 660.56 117.43 664.56 113.03 C 668.56 108.63 674.123 106.433 681.25 106.44 C 688.043 106.44 693.327 108.373 697.1 112.24 C 700.873 116.107 702.763 121.44 702.77 128.24 L 702.77 134.6 L 671.77 134.6 C 671.91 138.32 673.01 141.227 675.07 143.32 C 677.13 145.41 680.07 146.45 683.75 146.45 C 686.512 146.464 689.267 146.162 691.96 145.55 C 694.743 144.874 697.448 143.909 700.03 142.67 L 700.03 152.81 C 697.702 153.971 695.235 154.831 692.69 155.37 C 689.571 155.977 686.397 156.262 683.22 156.22 Z M 681.37 115.76 C 678.91 115.63 676.518 116.597 674.84 118.4 C 673.13 120.529 672.179 123.169 672.14 125.9 L 690.52 125.9 C 690.46 122.66 689.617 120.16 687.99 118.4 C 686.269 116.604 683.855 115.641 681.37 115.76 Z" fill="#FFFFFF"/><path d=" M 305.22 221.75 L 305.22 239 L 300.4 239 L 300.4 197.5 L 311.78 197.5 C 316.88 197.5 320.643 198.473 323.07 200.42 C 325.497 202.367 326.713 205.303 326.72 209.23 C 326.72 214.723 323.937 218.433 318.37 220.36 L 329.65 239 L 323.94 239 L 313.89 221.73 Z M 305.22 217.61 L 311.84 217.61 C 315.253 217.61 317.753 216.943 319.34 215.61 C 320.927 214.277 321.723 212.243 321.73 209.51 C 321.73 206.77 320.92 204.793 319.3 203.58 C 317.68 202.367 315.08 201.76 311.5 201.76 L 305.22 201.76 Z" fill="#FFFFFF"/><path d=" M 348.79 239.59 C 344.19 239.59 340.56 238.19 337.9 235.39 C 335.24 232.59 333.907 228.697 333.9 223.71 C 333.9 218.697 335.137 214.697 337.61 211.71 C 340.056 208.764 343.734 207.126 347.56 207.28 C 351.065 207.113 354.462 208.521 356.82 211.12 C 359.093 213.693 360.23 217.08 360.23 221.28 L 360.23 224.28 L 338.79 224.28 C 338.89 227.93 339.79 230.71 341.56 232.6 C 343.503 234.567 346.2 235.602 348.96 235.44 C 352.382 235.426 355.765 234.711 358.9 233.34 L 358.9 237.54 C 357.38 238.216 355.795 238.735 354.17 239.09 C 352.398 239.438 350.596 239.606 348.79 239.59 Z M 347.51 211.27 C 345.246 211.16 343.05 212.057 341.51 213.72 C 339.906 215.618 338.981 217.997 338.88 220.48 L 355.15 220.48 C 355.15 217.48 354.49 215.23 353.15 213.64 C 351.733 212.027 349.654 211.153 347.51 211.27 Z" fill="#FFFFFF"/><path d=" M 388.36 230.53 C 388.487 233.169 387.267 235.692 385.12 237.23 C 382.96 238.803 379.93 239.59 376.03 239.59 C 371.903 239.59 368.683 238.923 366.37 237.59 L 366.37 233.22 C 367.908 233.987 369.524 234.587 371.19 235.01 C 372.807 235.43 374.47 235.648 376.14 235.66 C 378.104 235.773 380.063 235.366 381.82 234.48 C 383.749 233.337 384.386 230.847 383.243 228.917 C 382.983 228.479 382.643 228.093 382.24 227.78 C 380.338 226.486 378.269 225.457 376.09 224.72 C 373.94 223.991 371.87 223.046 369.91 221.9 C 368.803 221.207 367.869 220.269 367.18 219.16 C 366.563 218.037 366.256 216.771 366.29 215.49 C 366.224 213.093 367.39 210.829 369.38 209.49 C 371.453 208.017 374.287 207.283 377.88 207.29 C 381.255 207.283 384.596 207.964 387.7 209.29 L 386 213.2 C 383.318 212.015 380.431 211.359 377.5 211.27 C 375.774 211.155 374.049 211.5 372.5 212.27 C 371.437 212.844 370.782 213.962 370.8 215.17 C 370.779 215.929 370.999 216.675 371.43 217.3 C 371.991 217.998 372.693 218.571 373.49 218.98 C 375.261 219.859 377.084 220.627 378.95 221.28 C 382.64 222.62 385.13 223.98 386.43 225.34 C 387.744 226.741 388.44 228.611 388.36 230.53 Z" fill="#FFFFFF"/><path d=" M 409.17 239.59 C 404.57 239.59 400.94 238.19 398.28 235.39 C 395.62 232.59 394.287 228.697 394.28 223.71 C 394.28 218.697 395.517 214.697 397.99 211.71 C 400.436 208.764 404.114 207.126 407.94 207.28 C 411.445 207.113 414.842 208.521 417.2 211.12 C 419.473 213.693 420.61 217.08 420.61 221.28 L 420.61 224.28 L 399.18 224.28 C 399.27 227.93 400.18 230.71 401.95 232.6 C 403.888 234.569 406.582 235.604 409.34 235.44 C 412.782 235.433 416.186 234.718 419.34 233.34 L 419.34 237.54 C 417.819 238.213 416.234 238.732 414.61 239.09 C 412.818 239.442 410.996 239.609 409.17 239.59 Z M 407.9 211.27 C 405.637 211.163 403.441 212.059 401.9 213.72 C 400.3 215.621 399.376 217.998 399.27 220.48 L 415.54 220.48 C 415.54 217.48 414.88 215.23 413.54 213.64 C 412.123 212.027 410.044 211.153 407.9 211.27 Z" fill="#FFFFFF"/><path d=" M 447.8 239 L 446.86 234.57 L 446.64 234.57 C 445.428 236.253 443.835 237.623 441.99 238.57 C 440.154 239.303 438.185 239.644 436.21 239.57 C 433.594 239.717 431.019 238.871 429 237.2 C 427.171 235.435 426.209 232.956 426.37 230.42 C 426.37 224.133 431.397 220.837 441.45 220.53 L 446.73 220.36 L 446.73 218.43 C 446.73 215.99 446.21 214.18 445.16 213.02 C 444.11 211.86 442.43 211.27 440.16 211.27 C 437.081 211.397 434.071 212.214 431.35 213.66 L 429.9 210.05 C 431.482 209.189 433.16 208.517 434.9 208.05 C 436.696 207.582 438.544 207.344 440.4 207.34 C 444.11 207.34 446.86 208.17 448.65 209.81 C 450.44 211.45 451.33 214.1 451.33 217.74 L 451.33 239 Z M 437.15 235.68 C 439.686 235.82 442.174 234.95 444.07 233.26 C 445.818 231.463 446.729 229.013 446.58 226.51 L 446.58 223.69 L 441.86 223.89 C 438.12 224.02 435.41 224.61 433.76 225.64 C 432.105 226.66 431.147 228.51 431.27 230.45 C 431.171 231.914 431.741 233.345 432.82 234.34 C 434.049 235.306 435.589 235.79 437.15 235.7 Z" fill="#FFFFFF"/><path d=" M 475.21 207.33 C 476.458 207.316 477.705 207.43 478.93 207.67 L 478.28 212.04 C 477.161 211.778 476.019 211.634 474.87 211.61 C 472.364 211.607 469.99 212.735 468.41 214.68 C 466.591 216.801 465.631 219.527 465.72 222.32 L 465.72 239 L 461 239 L 461 207.89 L 464.89 207.89 L 465.43 213.66 L 465.66 213.66 C 466.665 211.793 468.093 210.187 469.83 208.97 C 471.414 207.886 473.291 207.314 475.21 207.33 Z" fill="#FFFFFF"/><path d=" M 497.19 239.59 C 492.683 239.59 489.197 238.203 486.73 235.43 C 484.263 232.657 483.02 228.733 483 223.66 C 483 218.447 484.253 214.423 486.76 211.59 C 489.267 208.757 492.84 207.337 497.48 207.33 C 498.989 207.331 500.495 207.492 501.97 207.81 C 503.186 208.039 504.368 208.418 505.49 208.94 L 504.04 212.94 C 502.935 212.517 501.798 212.182 500.64 211.94 C 499.568 211.688 498.471 211.55 497.37 211.53 C 491.05 211.53 487.887 215.563 487.88 223.63 C 487.88 227.45 488.66 230.39 490.2 232.43 C 491.834 234.531 494.405 235.681 497.06 235.5 C 499.81 235.469 502.527 234.902 505.06 233.83 L 505.06 238 C 502.601 239.151 499.903 239.696 497.19 239.59 Z" fill="#FFFFFF"/><path d=" M 533.74 239 L 533.74 218.89 C 533.74 216.35 533.17 214.45 532.01 213.2 C 530.85 211.95 529.01 211.33 526.59 211.33 C 523.31 211.33 520.92 212.22 519.42 214 C 517.92 215.78 517.167 218.697 517.16 222.75 L 517.16 239 L 512.44 239 L 512.44 194.83 L 517.16 194.83 L 517.16 208.21 C 517.175 209.547 517.098 210.883 516.93 212.21 L 517.21 212.21 C 518.184 210.677 519.57 209.45 521.21 208.67 C 523.035 207.785 525.042 207.343 527.07 207.38 C 530.88 207.38 533.73 208.29 535.63 210.09 C 537.53 211.89 538.49 214.78 538.49 218.71 L 538.49 239 Z" fill="#FFFFFF"/><path d=" M 582.23 217.27 L 596.34 217.27 L 596.34 237.46 C 594.15 238.159 591.91 238.691 589.64 239.05 C 587.025 239.434 584.383 239.615 581.74 239.59 C 575.46 239.59 570.567 237.72 567.06 233.98 C 563.553 230.24 561.803 225 561.81 218.26 C 561.72 214.321 562.61 210.42 564.4 206.91 C 566.081 203.725 568.694 201.13 571.89 199.47 C 575.436 197.69 579.364 196.808 583.33 196.9 C 587.582 196.868 591.797 197.698 595.72 199.34 L 593.84 203.6 C 590.425 202.082 586.737 201.272 583 201.22 C 577.953 201.22 574.007 202.727 571.16 205.74 C 568.313 208.753 566.893 212.927 566.9 218.26 C 566.9 223.86 568.27 228.12 571 231.01 C 573.73 233.9 577.76 235.36 583.06 235.36 C 585.9 235.366 588.73 235.031 591.49 234.36 L 591.49 221.58 L 582.21 221.58 Z" fill="#FFFFFF"/><path d=" M 619.8 207.33 C 621.048 207.316 622.295 207.43 623.52 207.67 L 622.87 212.04 C 621.752 211.777 620.609 211.633 619.46 211.61 C 616.954 211.607 614.58 212.735 613 214.68 C 611.184 216.802 610.227 219.528 610.32 222.32 L 610.32 239 L 605.6 239 L 605.6 207.89 L 609.49 207.89 L 610.03 213.66 L 610.26 213.66 C 611.268 211.795 612.696 210.19 614.43 208.97 C 616.011 207.888 617.885 207.316 619.8 207.33 Z" fill="#FFFFFF"/><path d=" M 656.21 223.43 C 656.21 228.497 654.933 232.46 652.38 235.32 C 649.827 238.18 646.293 239.603 641.78 239.59 C 639.172 239.627 636.605 238.934 634.37 237.59 C 632.186 236.25 630.446 234.295 629.37 231.97 C 628.146 229.279 627.545 226.346 627.61 223.39 C 627.61 218.31 628.88 214.357 631.42 211.53 C 633.96 208.703 637.487 207.303 642 207.33 C 645.936 207.147 649.746 208.74 652.38 211.67 C 654.933 214.557 656.21 218.477 656.21 223.43 Z M 632.5 223.43 C 632.5 227.43 633.293 230.46 634.88 232.52 C 638.411 236.386 644.407 236.658 648.273 233.127 C 648.484 232.934 648.687 232.731 648.88 232.52 C 650.48 230.45 651.28 227.41 651.28 223.42 C 651.28 219.43 650.48 216.42 648.88 214.42 C 647.28 212.42 644.88 211.34 641.79 211.34 C 638.7 211.34 636.38 212.34 634.79 214.34 C 633.2 216.34 632.5 219.42 632.5 223.43 Z" fill="#FFFFFF"/><path d=" M 668.91 207.89 L 668.91 228.09 C 668.91 230.62 669.49 232.52 670.64 233.77 C 671.79 235.02 673.64 235.64 676.07 235.64 C 679.323 235.64 681.703 234.75 683.21 232.97 C 684.71 231.19 685.47 228.29 685.47 224.25 L 685.47 207.89 L 690.18 207.89 L 690.18 239 L 686.29 239 L 685.61 234.83 L 685.35 234.83 C 684.385 236.365 682.995 237.588 681.35 238.35 C 679.512 239.189 677.51 239.606 675.49 239.57 C 671.7 239.57 668.87 238.67 666.98 236.87 C 665.09 235.07 664.16 232.19 664.16 228.24 L 664.16 207.89 Z" fill="#FFFFFF"/><path d=" M 714.66 239.59 C 712.751 239.614 710.86 239.233 709.11 238.47 C 707.425 237.71 705.97 236.52 704.89 235.02 L 704.55 235.02 C 704.772 236.734 704.885 238.461 704.89 240.19 L 704.89 253 L 700.18 253 L 700.18 207.89 L 704 207.89 L 704.66 212.15 L 704.88 212.15 C 705.952 210.576 707.413 209.305 709.12 208.46 C 710.856 207.676 712.745 207.289 714.65 207.33 C 718.783 207.33 721.97 208.74 724.21 211.56 C 726.45 214.38 727.573 218.337 727.58 223.43 C 727.58 228.537 726.437 232.507 724.15 235.34 C 721.842 238.185 718.319 239.763 714.66 239.59 Z M 714 211.33 C 710.82 211.33 708.52 212.21 707.1 213.97 C 705.68 215.73 704.95 218.533 704.91 222.38 L 704.91 223.43 C 704.91 227.803 705.64 230.933 707.1 232.82 C 708.56 234.707 710.893 235.647 714.1 235.64 C 716.626 235.719 719.013 234.486 720.41 232.38 C 721.943 230.2 722.707 227.2 722.7 223.38 C 722.693 219.56 721.93 216.583 720.41 214.45 C 718.935 212.398 716.526 211.225 714 211.33 Z" fill="#FFFFFF"/></svg>