<svg version="1.1" width="292.627" height="122.463" viewBox="0 0 219.47 91.8471" xmlns="http://www.w3.org/2000/svg" xmlns:xlink="http://www.w3.org/1999/xlink" id="Logo" overflow="hidden"><g><path d=" M 74.2709 51.2623 L 54.7111 54.7112 L 54.7111 37.1357 L 35.1509 17.5755 L 57.6651 17.576 L 74.2709 34.1815 L 74.2709 51.2623 Z" stroke="none" stroke-width="1" stroke-dasharray="" stroke-dashoffset="1" fill="#000000" fill-opacity="1"/><path d=" M 17.5757 40.5847 L 37.1355 37.1357 L 37.1355 54.7112 L 56.6957 74.2714 L 34.1815 74.271 L 17.5757 57.6654 L 17.5757 40.5847 Z" stroke="none" stroke-width="1" stroke-dasharray="" stroke-dashoffset="1" fill="#000000" fill-opacity="1"/></g><g><g><path d=" M 96.8895 25.2569 C 96.8895 26.834 96.5965 28.1573 96.0096 29.2257 C 95.4237 30.2941 94.5858 31.0958 93.4979 31.63 C 92.409 32.1652 91.1092 32.4318 89.5975 32.4318 L 85.453 32.4318 L 85.453 18.4728 L 89.9686 18.4728 C 91.4022 18.4728 92.6375 18.7335 93.6737 19.255 C 94.7099 19.7765 95.5048 20.5353 96.0585 21.5323 C 96.6122 22.5293 96.8896 23.7706 96.8896 25.2569 Z M 94.2499 25.335 C 94.2499 24.253 94.081 23.3604 93.7421 22.6563 C 93.4032 21.9532 92.9042 21.4288 92.246 21.0831 C 91.5878 20.7374 90.7772 20.5645 89.8124 20.5645 L 87.994 20.5645 L 87.994 30.3204 L 89.4803 30.3204 C 91.0828 30.3204 92.2791 29.9063 93.0672 29.0792 C 93.8563 28.2511 94.2498 27.004 94.2498 25.3351 Z" stroke="none" stroke-width="1" stroke-dasharray="" stroke-dashoffset="1" fill="#000000" fill-opacity="1"/><path d=" M 104.63 21.6397 C 104.825 21.6397 105.036 21.6495 105.265 21.669 C 105.493 21.6885 105.679 21.7178 105.821 21.7579 L 105.567 24.0645 C 105.411 24.0381 105.231 24.0127 105.03 23.9864 C 104.827 23.96 104.61 23.9473 104.376 23.9473 C 104.036 23.9473 103.704 24.0059 103.378 24.1231 C 103.052 24.2403 102.753 24.4229 102.479 24.67 C 102.206 24.918 101.989 25.2276 101.833 25.5987 C 101.677 25.9708 101.599 26.4171 101.599 26.9385 L 101.599 32.4317 L 99.1162 32.4317 L 99.1162 21.836 L 101.032 21.836 L 101.384 23.6729 L 101.501 23.6729 C 101.71 23.295 101.97 22.9502 102.284 22.6368 C 102.597 22.3243 102.95 22.0802 103.349 21.9044 C 103.747 21.7276 104.173 21.6398 104.63 21.6398 Z" stroke="none" stroke-width="1" stroke-dasharray="" stroke-dashoffset="1" fill="#000000" fill-opacity="1"/><path d=" M 111.461 21.6397 C 112.412 21.6397 113.233 21.8292 113.924 22.2071 C 114.614 22.585 115.145 23.1329 115.518 23.8497 C 115.889 24.5665 116.074 25.4327 116.074 26.4493 L 116.074 27.7198 L 109.095 27.7198 C 109.121 28.6719 109.388 29.4083 109.896 29.9298 C 110.405 30.4503 111.128 30.711 112.066 30.711 C 112.731 30.711 113.331 30.6465 113.865 30.5157 C 114.399 30.3858 114.947 30.1964 115.508 29.9493 L 115.508 31.9034 C 114.986 32.1514 114.445 32.3341 113.885 32.4513 C 113.324 32.5685 112.646 32.6271 111.852 32.6271 C 110.822 32.6271 109.906 32.4289 109.104 32.0314 C 108.304 31.6339 107.678 31.0304 107.228 30.2228 C 106.778 29.4142 106.554 28.4113 106.554 27.2121 C 106.554 26.0002 106.759 24.9807 107.17 24.1525 C 107.58 23.3244 108.153 22.6994 108.89 22.2755 C 109.626 21.8516 110.483 21.6398 111.461 21.6398 Z M 111.5 23.4776 C 110.822 23.4776 110.278 23.6924 109.867 24.1231 C 109.457 24.5528 109.219 25.1719 109.154 25.9805 L 113.67 25.9805 C 113.67 25.4854 113.592 25.0518 113.435 24.6797 C 113.279 24.3086 113.041 24.0156 112.721 23.8008 C 112.402 23.585 111.995 23.4776 111.5 23.4776 Z" stroke="none" stroke-width="1" stroke-dasharray="" stroke-dashoffset="1" fill="#000000" fill-opacity="1"/><path d=" M 125.784 29.3819 C 125.784 30.0596 125.621 30.6397 125.295 31.1221 C 124.968 31.6045 124.486 31.9756 123.848 32.2364 C 123.21 32.4971 122.414 32.627 121.463 32.627 C 120.72 32.627 120.068 32.5752 119.508 32.4708 C 118.947 32.3664 118.426 32.2042 117.944 31.9825 L 117.944 29.8702 C 118.466 30.1182 119.042 30.3233 119.675 30.4864 C 120.306 30.6495 120.889 30.7305 121.424 30.7305 C 122.128 30.7305 122.636 30.627 122.949 30.418 C 123.261 30.21 123.418 29.9297 123.418 29.5772 C 123.418 29.3555 123.349 29.1573 123.213 28.9815 C 123.076 28.8047 122.828 28.626 122.469 28.4434 C 122.111 28.2608 121.606 28.0401 120.955 27.7784 C 120.303 27.5186 119.753 27.254 119.303 26.9874 C 118.853 26.7198 118.511 26.3946 118.276 26.0099 C 118.042 25.6252 117.925 25.1466 117.925 24.5724 C 117.925 23.6212 118.302 22.8947 119.058 22.3927 C 119.814 21.8917 120.811 21.6398 122.05 21.6398 C 122.715 21.6398 123.337 21.7052 123.917 21.8361 C 124.497 21.966 125.066 22.1613 125.627 22.422 L 124.885 24.1818 C 124.402 23.9738 123.907 23.8009 123.398 23.6632 C 122.891 23.5265 122.421 23.4581 121.991 23.4581 C 121.443 23.4581 121.023 23.5431 120.73 23.712 C 120.437 23.8819 120.29 24.1163 120.29 24.4161 C 120.29 24.6505 120.361 24.8497 120.505 25.0128 C 120.648 25.1759 120.902 25.3419 121.268 25.5108 C 121.633 25.6807 122.141 25.8887 122.793 26.1368 C 123.431 26.3839 123.976 26.6446 124.425 26.919 C 124.875 27.1924 125.214 27.5215 125.441 27.9063 C 125.67 28.2901 125.784 28.7823 125.784 29.3819 Z" stroke="none" stroke-width="1" stroke-dasharray="" stroke-dashoffset="1" fill="#000000" fill-opacity="1"/><path d=" M 131.476 32.627 C 130.251 32.627 129.258 32.1651 128.495 31.2393 C 127.732 30.3135 127.351 28.9522 127.351 27.1534 C 127.351 25.3282 127.735 23.9542 128.505 23.0284 C 129.273 22.1026 130.284 21.6397 131.535 21.6397 C 132.057 21.6397 132.51 21.7081 132.893 21.8458 C 133.278 21.9825 133.614 22.1681 133.9 22.4024 C 134.187 22.6368 134.428 22.8985 134.624 23.1846 L 134.721 23.1846 C 134.695 22.9766 134.666 22.6797 134.634 22.295 C 134.601 21.9112 134.585 21.5684 134.585 21.2686 L 134.585 17.5733 L 137.088 17.5733 L 137.088 32.4317 L 135.152 32.4317 L 134.682 31.044 L 134.585 31.044 C 134.389 31.3301 134.151 31.5948 133.871 31.835 C 133.591 32.0772 133.252 32.2686 132.854 32.4121 C 132.457 32.5556 131.998 32.6269 131.476 32.6269 Z M 132.22 30.6134 C 133.132 30.6134 133.776 30.3566 134.155 29.8409 C 134.533 29.3263 134.721 28.5411 134.721 27.4854 L 134.721 27.1729 C 134.721 26.0391 134.543 25.169 134.184 24.5625 C 133.825 23.957 133.164 23.6533 132.2 23.6533 C 131.457 23.6533 130.887 23.9638 130.489 24.582 C 130.092 25.2011 129.892 26.0713 129.892 27.1924 C 129.892 28.3135 130.092 29.1641 130.489 29.7432 C 130.887 30.3233 131.464 30.6133 132.22 30.6133 Z" stroke="none" stroke-width="1" stroke-dasharray="" stroke-dashoffset="1" fill="#000000" fill-opacity="1"/><path d=" M 156.345 21.6388 C 157.544 21.6388 158.475 21.9454 159.141 22.5577 C 159.805 23.171 160.138 24.1612 160.138 25.5294 L 160.138 32.4308 L 157.674 32.4308 L 157.674 26.0382 C 157.674 25.2296 157.514 24.6271 157.195 24.2296 C 156.876 23.8321 156.384 23.6329 155.719 23.6329 C 154.728 23.6329 154.051 23.9464 153.685 24.5714 C 153.321 25.1974 153.139 26.0968 153.139 27.2696 L 153.139 32.4307 L 150.655 32.4307 L 150.655 21.835 L 152.571 21.835 L 152.924 23.2618 L 153.041 23.2618 C 153.275 22.8975 153.561 22.5938 153.901 22.3526 C 154.24 22.1114 154.614 21.9327 155.025 21.8155 C 155.435 21.6973 155.876 21.6387 156.344 21.6387 Z" stroke="none" stroke-width="1" stroke-dasharray="" stroke-dashoffset="1" fill="#000000" fill-opacity="1"/><path d=" M 144.016 21.6397 C 144.967 21.6397 145.788 21.8292 146.478 22.2071 C 147.169 22.585 147.7 23.1329 148.072 23.8497 C 148.443 24.5665 148.629 25.4327 148.629 26.4493 L 148.629 27.7198 L 141.649 27.7198 C 141.676 28.6719 141.943 29.4083 142.451 29.9298 C 142.96 30.4503 143.682 30.711 144.621 30.711 C 145.286 30.711 145.886 30.6465 146.42 30.5157 C 146.954 30.3858 147.502 30.1964 148.062 29.9493 L 148.062 31.9034 C 147.541 32.1514 147 32.3341 146.439 32.4513 C 145.879 32.5685 145.201 32.6271 144.406 32.6271 C 143.377 32.6271 142.461 32.4289 141.659 32.0314 C 140.858 31.6339 140.232 31.0304 139.783 30.2228 C 139.333 29.4142 139.108 28.4113 139.108 27.2121 C 139.108 26.0002 139.313 24.9807 139.725 24.1525 C 140.135 23.3244 140.708 22.6994 141.444 22.2755 C 142.18 21.8516 143.038 21.6398 144.016 21.6398 Z M 144.055 23.4776 C 143.377 23.4776 142.833 23.6924 142.422 24.1231 C 142.012 24.5528 141.773 25.1719 141.709 25.9805 L 146.225 25.9805 C 146.225 25.4854 146.146 25.0518 145.99 24.6797 C 145.834 24.3086 145.596 24.0156 145.276 23.8008 C 144.957 23.585 144.55 23.4776 144.055 23.4776 Z" stroke="none" stroke-width="1" stroke-dasharray="" stroke-dashoffset="1" fill="#000000" fill-opacity="1"/></g><g><path d=" M 104.793 42.5626 C 105.992 42.5626 106.924 42.8692 107.589 43.4815 C 108.253 44.0948 108.586 45.085 108.586 46.4532 L 108.586 53.3546 L 106.122 53.3546 L 106.122 46.962 C 106.122 46.1534 105.963 45.5509 105.643 45.1534 C 105.324 44.7559 104.832 44.5567 104.167 44.5567 C 103.177 44.5567 102.499 44.8702 102.134 45.4952 C 101.769 46.1212 101.587 47.0206 101.587 48.1934 L 101.587 53.3545 L 99.1033 53.3545 L 99.1033 42.7588 L 101.019 42.7588 L 101.372 44.1856 L 101.489 44.1856 C 101.723 43.8213 102.009 43.5176 102.349 43.2764 C 102.688 43.0352 103.062 42.8565 103.473 42.7393 C 103.884 42.6211 104.324 42.5625 104.793 42.5625 Z" stroke="none" stroke-width="1" stroke-dasharray="" stroke-dashoffset="1" fill="#000000" fill-opacity="1"/><path d=" M 112.329 38.6534 C 112.693 38.6534 113.013 38.7511 113.287 38.9464 C 113.56 39.1417 113.697 39.4806 113.697 39.963 C 113.697 40.4318 113.561 40.7677 113.287 40.9698 C 113.013 41.1719 112.693 41.2725 112.329 41.2725 C 111.937 41.2725 111.608 41.1719 111.342 40.9698 C 111.074 40.7677 110.94 40.4317 110.94 39.963 C 110.94 39.4806 111.074 39.1417 111.342 38.9464 C 111.608 38.7511 111.937 38.6534 112.329 38.6534 Z M 113.541 42.7589 L 113.541 53.3546 L 111.058 53.3546 L 111.058 42.7589 L 113.541 42.7589 Z" stroke="none" stroke-width="1" stroke-dasharray="" stroke-dashoffset="1" fill="#000000" fill-opacity="1"/><path d=" M 157.275 38.6534 C 157.64 38.6534 157.959 38.7511 158.233 38.9464 C 158.507 39.1417 158.643 39.4806 158.643 39.963 C 158.643 40.4318 158.507 40.7677 158.233 40.9698 C 157.959 41.1719 157.639 41.2725 157.275 41.2725 C 156.884 41.2725 156.555 41.1719 156.288 40.9698 C 156.02 40.7677 155.887 40.4317 155.887 39.963 C 155.887 39.4806 156.02 39.1417 156.288 38.9464 C 156.555 38.7511 156.884 38.6534 157.275 38.6534 Z M 158.487 42.7589 L 158.487 53.3546 L 156.004 53.3546 L 156.004 42.7589 L 158.487 42.7589 Z" stroke="none" stroke-width="1" stroke-dasharray="" stroke-dashoffset="1" fill="#000000" fill-opacity="1"/><path d=" M 165.794 51.5753 C 166.106 51.5753 166.406 51.546 166.692 51.4874 C 166.979 51.4288 167.247 51.3604 167.494 51.2823 L 167.494 53.1202 C 167.233 53.2374 166.894 53.338 166.477 53.4229 C 166.06 53.5078 165.624 53.5499 165.168 53.5499 C 164.568 53.5499 164.024 53.4493 163.535 53.2472 C 163.047 53.0451 162.656 52.6964 162.362 52.2013 C 162.069 51.7062 161.923 51.0158 161.923 50.129 L 161.923 44.6153 L 160.495 44.6153 L 160.495 43.5401 L 162.059 42.6807 L 162.842 40.4317 L 164.385 40.4317 L 164.385 42.7588 L 167.396 42.7588 L 167.396 44.6152 L 164.385 44.6152 L 164.385 50.1093 C 164.385 50.6044 164.515 50.9726 164.777 51.2138 C 165.037 51.455 165.376 51.5751 165.794 51.5751 Z" stroke="none" stroke-width="1" stroke-dasharray="" stroke-dashoffset="1" fill="#000000" fill-opacity="1"/><path d=" M 119.077 53.3546 L 115.05 42.7589 L 117.67 42.7589 L 119.742 49.0148 C 119.82 49.1974 119.898 49.422 119.977 49.6886 C 120.055 49.9562 120.13 50.2169 120.201 50.4708 C 120.272 50.7247 120.315 50.9503 120.328 51.1456 L 120.406 51.1456 C 120.433 50.9503 120.481 50.7247 120.553 50.4708 C 120.625 50.2169 120.706 49.9601 120.798 49.6983 C 120.889 49.4385 120.96 49.21 121.013 49.0147 L 123.124 42.7588 L 125.744 42.7588 L 121.697 53.3545 L 119.077 53.3545 Z" stroke="none" stroke-width="1" stroke-dasharray="" stroke-dashoffset="1" fill="#000000" fill-opacity="1"/><path d=" M 131.359 42.5626 C 132.31 42.5626 133.132 42.7521 133.822 43.13 C 134.512 43.5079 135.044 44.0558 135.416 44.7726 C 135.787 45.4894 135.973 46.3556 135.973 47.3722 L 135.973 48.6427 L 128.993 48.6427 C 129.019 49.5948 129.287 50.3312 129.795 50.8527 C 130.304 51.3732 131.026 51.6339 131.965 51.6339 C 132.63 51.6339 133.229 51.5694 133.764 51.4386 C 134.298 51.3087 134.846 51.1193 135.406 50.8722 L 135.406 52.8263 C 134.885 53.0743 134.344 53.257 133.783 53.3742 C 133.223 53.4914 132.545 53.55 131.75 53.55 C 130.721 53.55 129.805 53.3518 129.003 52.9543 C 128.202 52.5568 127.576 51.9533 127.127 51.1457 C 126.677 50.3371 126.452 49.3342 126.452 48.135 C 126.452 46.9231 126.657 45.9036 127.068 45.0754 C 127.478 44.2473 128.052 43.6223 128.788 43.1984 C 129.524 42.7745 130.382 42.5627 131.359 42.5627 Z M 131.398 44.4005 C 130.721 44.4005 130.177 44.6153 129.766 45.046 C 129.355 45.4757 129.117 46.0948 129.053 46.9034 L 133.568 46.9034 C 133.568 46.4083 133.49 45.9747 133.334 45.6026 C 133.178 45.2315 132.939 44.9385 132.62 44.7237 C 132.301 44.5079 131.893 44.4005 131.398 44.4005 Z" stroke="none" stroke-width="1" stroke-dasharray="" stroke-dashoffset="1" fill="#000000" fill-opacity="1"/><path d=" M 143.51 42.5626 C 143.705 42.5626 143.917 42.5724 144.145 42.5919 C 144.373 42.6114 144.558 42.6407 144.702 42.6808 L 144.448 44.9874 C 144.292 44.961 144.112 44.9356 143.91 44.9093 C 143.708 44.883 143.49 44.8702 143.256 44.8702 C 142.916 44.8702 142.584 44.9288 142.258 45.046 C 141.932 45.1632 141.633 45.3458 141.359 45.5929 C 141.086 45.8409 140.87 46.1505 140.714 46.5216 C 140.557 46.8937 140.479 47.34 140.479 47.8614 L 140.479 53.3546 L 137.996 53.3546 L 137.996 42.7589 L 139.912 42.7589 L 140.264 44.5958 L 140.382 44.5958 C 140.589 44.2179 140.85 43.8731 141.164 43.5597 C 141.476 43.2472 141.831 43.0031 142.229 42.8273 C 142.627 42.6505 143.053 42.5627 143.509 42.5627 Z" stroke="none" stroke-width="1" stroke-dasharray="" stroke-dashoffset="1" fill="#000000" fill-opacity="1"/><path d=" M 153.602 50.3048 C 153.602 50.9825 153.439 51.5626 153.113 52.045 C 152.787 52.5274 152.305 52.8985 151.667 53.1593 C 151.028 53.42 150.232 53.5499 149.281 53.5499 C 148.539 53.5499 147.887 53.4981 147.326 53.3937 C 146.765 53.2893 146.245 53.1271 145.762 52.9054 L 145.762 50.7931 C 146.284 51.0411 146.86 51.2462 147.493 51.4093 C 148.125 51.5724 148.708 51.6534 149.242 51.6534 C 149.946 51.6534 150.455 51.5499 150.767 51.3409 C 151.08 51.1329 151.236 50.8526 151.236 50.5001 C 151.236 50.2784 151.168 50.0802 151.031 49.9044 C 150.894 49.7276 150.646 49.5489 150.288 49.3663 C 149.93 49.1837 149.425 48.963 148.773 48.7013 C 148.121 48.4415 147.571 48.1769 147.121 47.9103 C 146.672 47.6427 146.329 47.3175 146.095 46.9328 C 145.86 46.5481 145.743 46.0695 145.743 45.4953 C 145.743 44.5441 146.121 43.8176 146.877 43.3156 C 147.633 42.8146 148.63 42.5627 149.868 42.5627 C 150.533 42.5627 151.155 42.6281 151.735 42.759 C 152.315 42.8889 152.885 43.0842 153.445 43.3449 L 152.703 45.1047 C 152.221 44.8967 151.725 44.7238 151.217 44.5861 C 150.709 44.4494 150.239 44.381 149.809 44.381 C 149.262 44.381 148.842 44.466 148.549 44.6349 C 148.255 44.8048 148.108 45.0392 148.108 45.339 C 148.108 45.5734 148.18 45.7726 148.323 45.9357 C 148.467 46.0988 148.721 46.2648 149.086 46.4337 C 149.451 46.6036 149.959 46.8116 150.611 47.0597 C 151.249 47.3068 151.794 47.5675 152.243 47.8419 C 152.693 48.1153 153.032 48.4444 153.26 48.8292 C 153.488 49.213 153.602 49.7052 153.602 50.3048 Z" stroke="none" stroke-width="1" stroke-dasharray="" stroke-dashoffset="1" fill="#000000" fill-opacity="1"/><path d=" M 96.6307 48.4279 C 96.6307 49.3927 96.4246 50.2629 96.0145 51.0383 C 95.6044 51.8137 94.9813 52.426 94.1473 52.8762 C 93.3133 53.3254 92.2577 53.55 90.9803 53.55 C 89.1688 53.55 87.7938 53.0783 86.8553 52.133 C 85.9168 51.1877 85.4481 49.9406 85.4481 48.3889 L 85.4481 39.3957 L 87.9501 39.3957 L 87.9501 48.135 C 87.9501 49.2688 88.2108 50.0998 88.7323 50.6272 C 89.2538 51.1555 90.0292 51.4192 91.0585 51.4192 C 91.788 51.4192 92.3778 51.2952 92.828 51.0481 C 93.2772 50.8001 93.6102 50.426 93.8251 49.9241 C 94.04 49.4222 94.1474 48.8196 94.1474 48.1155 L 94.1474 39.3958 L 96.6308 39.3958 L 96.6308 48.428 Z" stroke="none" stroke-width="1" stroke-dasharray="" stroke-dashoffset="1" fill="#000000" fill-opacity="1"/><path d=" M 168.317 42.7609 L 170.957 42.7609 L 173.068 48.8019 C 173.159 49.049 173.244 49.2999 173.322 49.5539 C 173.4 49.8088 173.468 50.0598 173.527 50.3068 C 173.585 50.5548 173.634 50.7892 173.673 51.0109 L 173.751 51.0109 C 173.804 50.7111 173.892 50.3625 174.016 49.965 C 174.139 49.5675 174.266 49.1798 174.397 48.8019 L 176.43 42.7609 L 179.031 42.7609 L 174.612 54.5099 C 174.325 55.2531 173.997 55.8878 173.625 56.4161 C 173.253 56.9444 172.8 57.3477 172.266 57.628 C 171.731 57.9083 171.074 58.0489 170.292 58.0489 C 169.965 58.0489 169.682 58.0323 169.441 58.0001 C 169.2 57.9669 168.995 57.9308 168.825 57.8917 L 168.825 55.9376 C 168.968 55.963 169.141 55.9894 169.343 56.0157 C 169.546 56.0411 169.758 56.0548 169.979 56.0548 C 170.382 56.0548 170.724 55.9728 171.005 55.8097 C 171.285 55.6466 171.523 55.4288 171.718 55.1554 C 171.915 54.881 172.077 54.5685 172.208 54.2169 L 172.559 53.3175 L 168.317 42.7609 Z" stroke="none" stroke-width="1" stroke-dasharray="" stroke-dashoffset="1" fill="#000000" fill-opacity="1"/><path d=" M 193.279 48.0392 C 193.279 48.9122 193.162 49.6906 192.927 50.3751 C 192.692 51.0597 192.357 51.6397 191.921 52.1153 C 191.483 52.5909 190.949 52.9493 190.317 53.1905 C 189.684 53.4317 188.978 53.5518 188.196 53.5518 C 187.465 53.5518 186.794 53.4317 186.182 53.1905 C 185.569 52.9493 185.042 52.5909 184.598 52.1153 C 184.155 51.6397 183.807 51.0596 183.552 50.3751 C 183.298 49.6905 183.171 48.9122 183.171 48.0392 C 183.171 46.8527 183.376 45.8566 183.788 45.048 C 184.198 44.2394 184.781 43.6242 185.537 43.2003 C 186.292 42.7764 187.199 42.5646 188.254 42.5646 C 189.245 42.5646 190.115 42.7765 190.865 43.2003 C 191.614 43.6241 192.204 44.2394 192.633 45.048 C 193.064 45.8566 193.279 46.8527 193.279 48.0392 Z M 185.712 48.0392 C 185.712 48.7687 185.801 49.4044 185.977 49.9454 C 186.153 50.4864 186.426 50.8995 186.798 51.1866 C 187.169 51.4737 187.648 51.6163 188.235 51.6163 C 188.822 51.6163 189.3 51.4737 189.671 51.1866 C 190.044 50.8995 190.314 50.4864 190.483 49.9454 C 190.652 49.4044 190.737 48.7686 190.737 48.0392 C 190.737 47.2833 190.649 46.6447 190.473 46.1232 C 190.297 45.6017 190.027 45.2013 189.662 44.9211 C 189.297 44.6408 188.815 44.5002 188.215 44.5002 C 187.342 44.5002 186.706 44.8098 186.309 45.4289 C 185.912 46.048 185.712 46.9182 185.712 48.0393 Z" stroke="none" stroke-width="1" stroke-dasharray="" stroke-dashoffset="1" fill="#000000" fill-opacity="1"/><path d=" M 200.858 44.6173 L 198.297 44.6173 L 198.297 53.3566 L 195.834 53.3566 L 195.834 44.6173 L 194.133 44.6173 L 194.133 43.4444 L 195.834 42.7413 L 195.834 42.0177 C 195.834 41.1056 195.977 40.3888 196.263 39.8673 C 196.551 39.3458 196.967 38.9708 197.515 38.7433 C 198.062 38.5148 198.708 38.4005 199.451 38.4005 C 199.971 38.4005 200.441 38.4435 200.858 38.5275 C 201.275 38.6125 201.621 38.7072 201.894 38.8117 L 201.268 40.6496 C 201.046 40.5842 200.802 40.5217 200.536 40.4631 C 200.268 40.4045 199.978 40.3752 199.666 40.3752 C 199.196 40.3752 198.851 40.5256 198.63 40.8254 C 198.408 41.1252 198.297 41.5422 198.297 42.0764 L 198.297 42.761 L 200.858 42.761 L 200.858 44.6174 Z" stroke="none" stroke-width="1" stroke-dasharray="" stroke-dashoffset="1" fill="#000000" fill-opacity="1"/></g><g><path d=" M 135.234 63.4726 C 136.433 63.4726 137.365 63.7792 138.03 64.3915 C 138.694 65.0048 139.027 65.995 139.027 67.3632 L 139.027 74.2646 L 136.563 74.2646 L 136.563 67.872 C 136.563 67.0634 136.404 66.4609 136.085 66.0634 C 135.765 65.6659 135.273 65.4667 134.608 65.4667 C 133.618 65.4667 132.94 65.7802 132.575 66.4052 C 132.21 67.0312 132.028 67.9306 132.028 69.1034 L 132.028 74.2645 L 129.544 74.2645 L 129.544 63.6688 L 131.46 63.6688 L 131.813 65.0956 L 131.93 65.0956 C 132.165 64.7313 132.451 64.4276 132.79 64.1864 C 133.129 63.9452 133.503 63.7665 133.915 63.6493 C 134.325 63.5311 134.765 63.4725 135.234 63.4725 Z" stroke="none" stroke-width="1" stroke-dasharray="" stroke-dashoffset="1" fill="#000000" fill-opacity="1"/><path d=" M 100.984 63.4794 C 101.935 63.4794 102.756 63.6689 103.447 64.0468 C 104.137 64.4247 104.669 64.9726 105.041 65.6894 C 105.412 66.4062 105.597 67.2724 105.597 68.289 L 105.597 69.5595 L 98.6177 69.5595 C 98.6441 70.5116 98.9116 71.248 99.4195 71.7695 C 99.9283 72.29 100.651 72.5507 101.589 72.5507 C 102.254 72.5507 102.854 72.4862 103.388 72.3554 C 103.922 72.2255 104.47 72.0361 105.031 71.789 L 105.031 73.7431 C 104.509 73.9911 103.968 74.1738 103.408 74.291 C 102.847 74.4082 102.17 74.4668 101.375 74.4668 C 100.345 74.4668 99.4293 74.2686 98.6275 73.8711 C 97.8267 73.4736 97.2007 72.8701 96.7515 72.0625 C 96.3013 71.2539 96.0767 70.251 96.0767 69.0518 C 96.0767 67.8399 96.2818 66.8204 96.6929 65.9922 C 97.1031 65.1641 97.6763 64.5391 98.4126 64.1152 C 99.1489 63.6913 100.006 63.4795 100.984 63.4795 Z M 101.023 65.3173 C 100.345 65.3173 99.8012 65.5321 99.3901 65.9628 C 98.9799 66.3925 98.7417 67.0116 98.6772 67.8202 L 103.193 67.8202 C 103.193 67.3251 103.115 66.8915 102.958 66.5194 C 102.802 66.1483 102.564 65.8553 102.244 65.6405 C 101.925 65.4247 101.518 65.3173 101.023 65.3173 Z" stroke="none" stroke-width="1" stroke-dasharray="" stroke-dashoffset="1" fill="#000000" fill-opacity="1"/><path d=" M 112.35 74.4667 C 111.359 74.4667 110.486 74.2743 109.73 73.8905 C 108.974 73.5057 108.384 72.913 107.961 72.1112 C 107.538 71.3094 107.326 70.2831 107.326 69.0321 C 107.326 67.7284 107.553 66.6698 108.01 65.8553 C 108.466 65.0408 109.086 64.4412 109.867 64.0565 C 110.649 63.6717 111.536 63.4794 112.526 63.4794 C 113.113 63.4794 113.672 63.538 114.207 63.6562 C 114.742 63.7734 115.198 63.9296 115.576 64.125 L 114.832 66.0605 C 114.481 65.9169 114.103 65.79 113.699 65.6796 C 113.294 65.5683 112.897 65.5126 112.506 65.5126 C 111.933 65.5126 111.448 65.6435 111.05 65.9042 C 110.652 66.1649 110.356 66.5526 110.161 67.0673 C 109.965 67.582 109.867 68.2304 109.867 69.0126 C 109.867 69.7558 109.968 70.3808 110.17 70.8896 C 110.372 71.3974 110.665 71.7792 111.05 72.0332 C 111.434 72.2871 111.9 72.4141 112.448 72.4141 C 113.008 72.4141 113.526 72.3457 114.003 72.209 C 114.478 72.0723 114.924 71.8936 115.341 71.6709 L 115.341 73.7432 C 114.95 73.9659 114.517 74.1416 114.042 74.2715 C 113.565 74.4014 113.002 74.4668 112.35 74.4668 Z" stroke="none" stroke-width="1" stroke-dasharray="" stroke-dashoffset="1" fill="#000000" fill-opacity="1"/><path d=" M 120.077 62.913 C 120.077 63.3691 120.063 63.7831 120.037 64.1542 C 120.011 64.5253 119.985 64.829 119.959 65.0634 L 120.096 65.0634 C 120.318 64.6982 120.591 64.4023 120.917 64.1738 C 121.243 63.9463 121.605 63.7734 122.002 63.6562 C 122.4 63.538 122.814 63.4794 123.244 63.4794 C 124.038 63.4794 124.723 63.6171 125.296 63.8905 C 125.869 64.1639 126.31 64.5839 126.616 65.1512 C 126.922 65.7186 127.076 66.4578 127.076 67.37 L 127.076 74.2714 L 124.592 74.2714 L 124.592 67.8788 C 124.592 67.0702 124.436 66.4677 124.123 66.0702 C 123.811 65.6727 123.322 65.4735 122.657 65.4735 C 122.005 65.4735 121.491 65.6171 121.113 65.9042 C 120.735 66.1913 120.467 66.6015 120.311 67.1356 C 120.155 67.6697 120.076 68.328 120.076 69.1102 L 120.076 74.2713 L 117.593 74.2713 L 117.593 59.4129 L 120.076 59.4129 L 120.076 62.9129 Z" stroke="none" stroke-width="1" stroke-dasharray="" stroke-dashoffset="1" fill="#000000" fill-opacity="1"/><path d=" M 92.3134 74.2712 L 89.7917 74.2712 L 89.7917 62.4444 L 85.4557 62.4444 L 85.4557 60.3136 L 96.646 60.3136 L 96.646 62.4444 L 92.3134 62.4444 L 92.3134 74.2712 Z" stroke="none" stroke-width="1" stroke-dasharray="" stroke-dashoffset="1" fill="#000000" fill-opacity="1"/><path d=" M 151.159 68.9532 C 151.159 69.8262 151.042 70.6046 150.808 71.2891 C 150.572 71.9737 150.238 72.5537 149.801 73.0293 C 149.363 73.5049 148.829 73.8633 148.197 74.1045 C 147.565 74.3457 146.859 74.4658 146.076 74.4658 C 145.346 74.4658 144.675 74.3457 144.063 74.1045 C 143.449 73.8633 142.922 73.5049 142.479 73.0293 C 142.035 72.5537 141.688 71.9736 141.433 71.2891 C 141.179 70.6045 141.052 69.8262 141.052 68.9532 C 141.052 67.7667 141.257 66.7706 141.668 65.962 C 142.078 65.1534 142.661 64.5382 143.417 64.1143 C 144.173 63.6904 145.079 63.4786 146.135 63.4786 C 147.125 63.4786 147.995 63.6905 148.745 64.1143 C 149.494 64.5381 150.084 65.1534 150.514 65.962 C 150.945 66.7706 151.159 67.7667 151.159 68.9532 Z M 143.593 68.9532 C 143.593 69.6827 143.682 70.3184 143.858 70.8594 C 144.033 71.4004 144.307 71.8135 144.679 72.1006 C 145.05 72.3877 145.529 72.5303 146.115 72.5303 C 146.702 72.5303 147.181 72.3877 147.552 72.1006 C 147.924 71.8135 148.195 71.4004 148.363 70.8594 C 148.532 70.3184 148.617 69.6826 148.617 68.9532 C 148.617 68.1973 148.529 67.5587 148.354 67.0372 C 148.178 66.5157 147.907 66.1153 147.542 65.8351 C 147.178 65.5548 146.695 65.4142 146.096 65.4142 C 145.223 65.4142 144.587 65.7238 144.19 66.3429 C 143.792 66.962 143.593 67.8322 143.593 68.9533 Z" stroke="none" stroke-width="1" stroke-dasharray="" stroke-dashoffset="1" fill="#000000" fill-opacity="1"/><path d=" M 167.777 68.9532 C 167.777 69.8262 167.659 70.6046 167.425 71.2891 C 167.189 71.9737 166.855 72.5537 166.418 73.0293 C 165.981 73.5049 165.446 73.8633 164.815 74.1045 C 164.182 74.3457 163.476 74.4658 162.693 74.4658 C 161.963 74.4658 161.292 74.3457 160.68 74.1045 C 160.066 73.8633 159.539 73.5049 159.096 73.0293 C 158.652 72.5537 158.305 71.9736 158.05 71.2891 C 157.796 70.6045 157.669 69.8262 157.669 68.9532 C 157.669 67.7667 157.874 66.7706 158.285 65.962 C 158.695 65.1534 159.278 64.5382 160.034 64.1143 C 160.79 63.6904 161.696 63.4786 162.752 63.4786 C 163.742 63.4786 164.612 63.6905 165.362 64.1143 C 166.111 64.5381 166.701 65.1534 167.131 65.962 C 167.562 66.7706 167.777 67.7667 167.777 68.9532 Z M 160.21 68.9532 C 160.21 69.6827 160.299 70.3184 160.475 70.8594 C 160.65 71.4004 160.924 71.8135 161.296 72.1006 C 161.667 72.3877 162.146 72.5303 162.732 72.5303 C 163.319 72.5303 163.798 72.3877 164.169 72.1006 C 164.541 71.8135 164.812 71.4004 164.98 70.8594 C 165.149 70.3184 165.234 69.6826 165.234 68.9532 C 165.234 68.1973 165.146 67.5587 164.971 67.0372 C 164.795 66.5157 164.524 66.1153 164.159 65.8351 C 163.795 65.5548 163.312 65.4142 162.713 65.4142 C 161.84 65.4142 161.204 65.7238 160.807 66.3429 C 160.409 66.962 160.21 67.8322 160.21 68.9533 Z" stroke="none" stroke-width="1" stroke-dasharray="" stroke-dashoffset="1" fill="#000000" fill-opacity="1"/><path d=" M 173.674 63.4786 C 174.391 63.4786 175.006 63.6124 175.522 63.88 C 176.036 64.1466 176.47 64.5284 176.822 65.0236 L 176.919 65.0236 L 177.173 63.675 L 179.246 63.675 L 179.246 74.3879 C 179.246 75.3918 179.06 76.2317 178.689 76.9104 C 178.318 77.5872 177.757 78.0989 177.007 78.4446 C 176.258 78.7903 175.303 78.9632 174.144 78.9632 C 173.348 78.9632 172.628 78.9105 171.983 78.806 C 171.338 78.7015 170.742 78.5394 170.195 78.3177 L 170.195 76.1478 C 170.754 76.4085 171.351 76.6097 171.983 76.7533 C 172.615 76.8969 173.328 76.9691 174.123 76.9691 C 174.971 76.9691 175.622 76.7533 176.078 76.3236 C 176.535 75.8939 176.763 75.2943 176.763 74.5248 L 176.763 74.2123 C 176.763 74.0434 176.773 73.8246 176.792 73.557 C 176.812 73.2904 176.828 73.0658 176.841 72.8832 L 176.763 72.8832 C 176.437 73.3783 176.02 73.766 175.512 74.0463 C 175.003 74.3266 174.384 74.4662 173.655 74.4662 C 172.377 74.4662 171.367 73.9906 170.624 73.0394 C 169.881 72.0882 169.51 70.7386 169.51 68.9925 C 169.51 67.2591 169.884 65.9066 170.634 64.9359 C 171.383 63.9652 172.397 63.4789 173.674 63.4789 Z M 174.359 65.4728 C 173.863 65.4728 173.443 65.6095 173.097 65.8839 C 172.752 66.1573 172.491 66.5577 172.316 67.086 C 172.14 67.6133 172.051 68.2559 172.051 69.0118 C 172.051 70.172 172.25 71.0421 172.648 71.6212 C 173.045 72.2013 173.628 72.4913 174.398 72.4913 C 174.84 72.4913 175.219 72.4298 175.532 72.3058 C 175.844 72.1818 176.102 71.9933 176.304 71.7394 C 176.505 71.4845 176.656 71.1623 176.753 70.7716 C 176.851 70.38 176.9 69.9181 176.9 69.3829 L 176.9 68.9532 C 176.9 68.1583 176.812 67.503 176.636 66.9884 C 176.46 66.4738 176.187 66.0919 175.815 65.8448 C 175.444 65.5968 174.957 65.4727 174.359 65.4727 Z" stroke="none" stroke-width="1" stroke-dasharray="" stroke-dashoffset="1" fill="#000000" fill-opacity="1"/><path d=" M 180.847 63.6749 L 183.486 63.6749 L 185.597 69.7159 C 185.689 69.963 185.773 70.2139 185.851 70.4679 C 185.929 70.7228 185.997 70.9738 186.056 71.2208 C 186.115 71.4688 186.163 71.7032 186.202 71.9249 L 186.281 71.9249 C 186.333 71.6251 186.421 71.2765 186.546 70.879 C 186.669 70.4815 186.796 70.0938 186.927 69.7159 L 188.96 63.6749 L 191.56 63.6749 L 187.142 75.4239 C 186.855 76.1671 186.527 76.8018 186.154 77.3301 C 185.782 77.8584 185.329 78.2617 184.796 78.542 C 184.261 78.8223 183.603 78.9629 182.822 78.9629 C 182.495 78.9629 182.212 78.9463 181.97 78.9141 C 181.73 78.8809 181.525 78.8448 181.355 78.8057 L 181.355 76.8516 C 181.497 76.877 181.671 76.9034 181.872 76.9297 C 182.075 76.9551 182.286 76.9688 182.509 76.9688 C 182.911 76.9688 183.253 76.8868 183.534 76.7237 C 183.814 76.5606 184.052 76.3428 184.247 76.0694 C 184.445 75.795 184.607 75.4825 184.738 75.1309 L 185.089 74.2315 L 180.847 63.6749 Z" stroke="none" stroke-width="1" stroke-dasharray="" stroke-dashoffset="1" fill="#000000" fill-opacity="1"/><path d=" M 155.654 74.2706 L 153.17 74.2706 L 153.17 59.4122 L 155.654 59.4122 L 155.654 74.2706 Z" stroke="none" stroke-width="1" stroke-dasharray="" stroke-dashoffset="1" fill="#000000" fill-opacity="1"/></g></g></svg>